<svg preserveAspectRatio="none" width="100%" height="100%" overflow="visible" style="display: block;" viewBox="0 0 28 28" fill="none" xmlns="http://www.w3.org/2000/svg">
<g id="Icon">
<path id="Vector" d="M17.5 24.5V18.6667C17.5 18.3572 17.3771 18.0605 17.1583 17.8417C16.9395 17.6229 16.6428 17.5 16.3333 17.5H11.6667C11.3572 17.5 11.0605 17.6229 10.8417 17.8417C10.6229 18.0605 10.5 18.3572 10.5 18.6667V24.5" stroke="var(--stroke-0, white)" stroke-width="2.33333" stroke-linecap="round" stroke-linejoin="round"/>
<path id="Vector_2" d="M20.7363 12.0283C20.4931 11.7955 20.1695 11.6655 19.8328 11.6655C19.4961 11.6655 19.1724 11.7955 18.9292 12.0283C18.3867 12.5458 17.6658 12.8344 16.9161 12.8344C16.1664 12.8344 15.4455 12.5458 14.903 12.0283C14.6599 11.7959 14.3364 11.6661 14 11.6661C13.6636 11.6661 13.3402 11.7959 13.097 12.0283C12.5545 12.5461 11.8333 12.835 11.0833 12.835C10.3334 12.835 9.61223 12.5461 9.06968 12.0283C8.82647 11.7955 8.50278 11.6655 8.1661 11.6655C7.82941 11.6655 7.50572 11.7955 7.26252 12.0283C6.7385 12.5284 6.04717 12.8156 5.32308 12.834C4.59899 12.8524 3.89396 12.6007 3.3452 12.1279C2.79645 11.6552 2.44325 10.9951 2.35433 10.2763C2.26542 9.55744 2.44716 8.83123 2.86418 8.239L6.23468 3.35767C6.44854 3.0421 6.73646 2.78373 7.07326 2.60516C7.41005 2.42659 7.78547 2.33326 8.16668 2.33333H19.8333C20.2134 2.33319 20.5878 2.4259 20.9239 2.6034C21.26 2.78091 21.5477 3.03783 21.7618 3.35183L25.1393 8.2425C25.5565 8.8352 25.738 9.56196 25.6485 10.2812C25.559 11.0004 25.205 11.6605 24.6554 12.133C24.1058 12.6054 23.3999 12.8563 22.6754 12.8367C21.9509 12.8172 21.2597 12.5286 20.7363 12.0272" stroke="var(--stroke-0, white)" stroke-width="2.33333" stroke-linecap="round" stroke-linejoin="round"/>
<path id="Vector_3" d="M4.66667 12.7749V22.1666C4.66667 22.7854 4.9125 23.3789 5.35008 23.8165C5.78767 24.2541 6.38116 24.4999 7 24.4999H21C21.6188 24.4999 22.2123 24.2541 22.6499 23.8165C23.0875 23.3789 23.3333 22.7854 23.3333 22.1666V12.7749" stroke="var(--stroke-0, white)" stroke-width="2.33333" stroke-linecap="round" stroke-linejoin="round"/>
</g>
</svg>
