<svg preserveAspectRatio="none" width="100%" height="100%" overflow="visible" style="display: block;" viewBox="0 0 28 28" fill="none" xmlns="http://www.w3.org/2000/svg">
<g id="Icon">
<path id="Vector" d="M18.6666 2.33333L15.9833 5.01667C15.342 5.67092 14.9828 6.55053 14.9828 7.46667C14.9828 8.3828 15.342 9.26242 15.9833 9.91667L18.0833 12.0167C18.7376 12.658 19.6172 13.0172 20.5333 13.0172C21.4494 13.0172 22.3291 12.658 22.9833 12.0167L25.6666 9.33333" stroke="var(--stroke-0, white)" stroke-width="2.33333" stroke-linecap="round" stroke-linejoin="round"/>
<path id="Vector_2" d="M17.5 17.5001L3.84998 3.85006C3.38434 4.30629 3.01442 4.85084 2.76188 5.45183C2.50934 6.05282 2.37926 6.69816 2.37926 7.35006C2.37926 8.00195 2.50934 8.64729 2.76188 9.24828C3.01442 9.84927 3.38434 10.3938 3.84998 10.8501L12.3666 19.3667C13.1833 20.1834 14.7 20.1834 15.6333 19.3667L17.5 17.5001ZM17.5 17.5001L25.6666 25.6667" stroke="var(--stroke-0, white)" stroke-width="2.33333" stroke-linecap="round" stroke-linejoin="round"/>
<path id="Vector_3" d="M2.44997 25.4333L9.91664 18.0833" stroke="var(--stroke-0, white)" stroke-width="2.33333" stroke-linecap="round" stroke-linejoin="round"/>
<path id="Vector_4" d="M22.1667 5.83333L14 14" stroke="var(--stroke-0, white)" stroke-width="2.33333" stroke-linecap="round" stroke-linejoin="round"/>
</g>
</svg>
