<svg preserveAspectRatio="none" width="100%" height="100%" overflow="visible" style="display: block;" viewBox="0 0 32 32" fill="none" xmlns="http://www.w3.org/2000/svg">
<g id="Icon">
<path id="Vector" d="M15.416 4.35473C15.4735 4.2502 15.5581 4.16304 15.6608 4.10233C15.7635 4.04163 15.8807 4.0096 16 4.0096C16.1193 4.0096 16.2365 4.04163 16.3392 4.10233C16.4419 4.16304 16.5264 4.2502 16.584 4.35473L20.52 11.8267C20.6139 11.9997 20.7449 12.1498 20.9036 12.2662C21.0623 12.3826 21.2449 12.4624 21.4381 12.4999C21.6314 12.5373 21.8305 12.5316 22.0212 12.483C22.212 12.4344 22.3896 12.3441 22.5413 12.2187L28.244 7.3334C28.3535 7.24436 28.4884 7.19235 28.6293 7.18486C28.7702 7.17737 28.9098 7.21479 29.0281 7.29172C29.1464 7.36866 29.2372 7.48114 29.2875 7.61298C29.3378 7.74482 29.345 7.88922 29.308 8.0254L25.5293 21.6867C25.4522 21.9663 25.286 22.2131 25.056 22.3897C24.826 22.5663 24.5447 22.6631 24.2547 22.6654H7.74666C7.45644 22.6634 7.17481 22.5667 6.94452 22.3901C6.71423 22.2134 6.54786 21.9665 6.47066 21.6867L2.69333 8.02673C2.65633 7.89056 2.66349 7.74616 2.71378 7.61432C2.76408 7.48247 2.85491 7.36999 2.9732 7.29306C3.09149 7.21612 3.23114 7.17871 3.37205 7.1862C3.51296 7.19369 3.64786 7.24569 3.75733 7.33473L9.45866 12.2201C9.61039 12.3455 9.78801 12.4357 9.97875 12.4843C10.1695 12.5329 10.3686 12.5387 10.5619 12.5012C10.7551 12.4637 10.9376 12.3839 11.0964 12.2676C11.2551 12.1512 11.3861 12.0011 11.48 11.8281L15.416 4.35473Z" stroke="var(--stroke-0, white)" stroke-width="2.66667" stroke-linecap="round" stroke-linejoin="round"/>
<path id="Vector_2" d="M6.66667 28H25.3333" stroke="var(--stroke-0, white)" stroke-width="2.66667" stroke-linecap="round" stroke-linejoin="round"/>
</g>
</svg>
