<svg preserveAspectRatio="none" width="100%" height="100%" overflow="visible" style="display: block;" viewBox="0 0 32 32" fill="none" xmlns="http://www.w3.org/2000/svg">
<g id="Icon">
<path id="Vector" d="M12.8947 5.51471C12.9681 4.74183 13.3271 4.0241 13.9015 3.50175C14.4758 2.97939 15.2243 2.68994 16.0007 2.68994C16.777 2.68994 17.5255 2.97939 18.0999 3.50175C18.6742 4.0241 19.0332 4.74183 19.1067 5.51471C19.1508 6.01398 19.3146 6.49526 19.5842 6.91783C19.8537 7.34039 20.2211 7.69178 20.6553 7.94227C21.0894 8.19277 21.5775 8.33497 22.0783 8.35687C22.579 8.37876 23.0777 8.27969 23.532 8.06804C24.2375 7.74774 25.0369 7.7014 25.7747 7.93802C26.5124 8.17464 27.1358 8.67731 27.5234 9.34818C27.9109 10.0191 28.035 10.8101 27.8715 11.5675C27.708 12.3248 27.2685 12.9942 26.6387 13.4454C26.2285 13.7332 25.8937 14.1155 25.6626 14.5601C25.4314 15.0046 25.3107 15.4983 25.3107 15.9994C25.3107 16.5004 25.4314 16.9941 25.6626 17.4387C25.8937 17.8832 26.2285 18.2656 26.6387 18.5534C27.2685 19.0046 27.708 19.6739 27.8715 20.4313C28.035 21.1886 27.9109 21.9797 27.5234 22.6506C27.1358 23.3214 26.5124 23.8241 25.7747 24.0607C25.0369 24.2973 24.2375 24.251 23.532 23.9307C23.0777 23.7191 22.579 23.62 22.0783 23.6419C21.5775 23.6638 21.0894 23.806 20.6553 24.0565C20.2211 24.307 19.8537 24.6584 19.5842 25.0809C19.3146 25.5035 19.1508 25.9848 19.1067 26.484C19.0332 27.2569 18.6742 27.9746 18.0999 28.497C17.5255 29.0194 16.777 29.3088 16.0007 29.3088C15.2243 29.3088 14.4758 29.0194 13.9015 28.497C13.3271 27.9746 12.9681 27.2569 12.8947 26.484C12.8506 25.9846 12.6868 25.5031 12.4172 25.0804C12.1475 24.6577 11.78 24.3062 11.3456 24.0557C10.9113 23.8051 10.423 23.663 9.9221 23.6412C9.42119 23.6195 8.9224 23.7188 8.468 23.9307C7.76252 24.251 6.9631 24.2973 6.22533 24.0607C5.48756 23.8241 4.86423 23.3214 4.47664 22.6506C4.08906 21.9797 3.96495 21.1886 4.12848 20.4313C4.29201 19.6739 4.73147 19.0046 5.36133 18.5534C5.77149 18.2656 6.10631 17.8832 6.33745 17.4387C6.5686 16.9941 6.68927 16.5004 6.68927 15.9994C6.68927 15.4983 6.5686 15.0046 6.33745 14.5601C6.10631 14.1155 5.77149 13.7332 5.36133 13.4454C4.73235 12.994 4.29367 12.3248 4.13053 11.568C3.9674 10.8112 4.09148 10.0208 4.47864 9.35032C4.86581 8.67989 5.48842 8.17734 6.22545 7.94036C6.96249 7.70338 7.76131 7.74888 8.46667 8.06804C8.92101 8.27969 9.41966 8.37876 9.9204 8.35687C10.4211 8.33497 10.9092 8.19277 11.3434 7.94227C11.7775 7.69178 12.1449 7.34039 12.4145 6.91783C12.6841 6.49526 12.8478 6.01398 12.892 5.51471" stroke="var(--stroke-0, white)" stroke-width="2.66667" stroke-linecap="round" stroke-linejoin="round"/>
<path id="Vector_2" d="M16 20C18.2091 20 20 18.2091 20 16C20 13.7909 18.2091 12 16 12C13.7909 12 12 13.7909 12 16C12 18.2091 13.7909 20 16 20Z" stroke="var(--stroke-0, white)" stroke-width="2.66667" stroke-linecap="round" stroke-linejoin="round"/>
</g>
</svg>
