<svg preserveAspectRatio="none" width="100%" height="100%" overflow="visible" style="display: block;" viewBox="0 0 29.3389 29.3395" fill="none" xmlns="http://www.w3.org/2000/svg">
<path id="Vector" d="M18.2673 7.07159C18.023 7.32083 17.8861 7.65592 17.8861 8.00492C17.8861 8.35393 18.023 8.68902 18.2673 8.93825L20.4006 11.0716C20.6499 11.3159 20.985 11.4527 21.334 11.4527C21.683 11.4527 22.0181 11.3159 22.2673 11.0716L26.4086 6.93159C26.8353 6.50226 27.5593 6.63826 27.7193 7.22226C28.1221 8.68742 28.0994 10.237 27.6537 11.6897C27.2079 13.1424 26.3577 14.4381 25.2025 15.4252C24.0472 16.4124 22.6347 17.05 21.1303 17.2637C19.6258 17.4773 18.0917 17.2581 16.7073 16.6316L6.16062 27.1783C5.63019 27.7085 4.91084 28.0063 4.16082 28.0062C3.4108 28.0061 2.69155 27.708 2.16129 27.1776C1.63103 26.6472 1.33321 25.9278 1.33333 25.1778C1.33346 24.4278 1.63152 23.7085 2.16196 23.1783L12.7086 12.6316C12.0821 11.2472 11.8629 9.71303 12.0765 8.20859C12.2902 6.70414 12.9279 5.29166 13.915 4.13641C14.9021 2.98116 16.1978 2.13094 17.6505 1.68522C19.1032 1.23951 20.6528 1.21674 22.118 1.61959C22.702 1.77959 22.838 2.50226 22.41 2.93159L18.2673 7.07159Z" stroke="var(--stroke-0, white)" stroke-width="2.66667" stroke-linecap="round" stroke-linejoin="round"/>
</svg>
