<svg preserveAspectRatio="none" width="100%" height="100%" overflow="visible" style="display: block;" viewBox="0 0 16 16" fill="none" xmlns="http://www.w3.org/2000/svg">
<g id="Icon">
<path id="Vector" d="M10 14.6667V12C10.0928 11.1649 9.85331 10.3267 9.33336 9.66667C11.3334 9.66667 13.3334 8.33333 13.3334 6C13.3867 5.16667 13.1534 4.34667 12.6667 3.66667C12.8534 2.9 12.8534 2.1 12.6667 1.33333C12.6667 1.33333 12 1.33333 10.6667 2.33333C8.90669 2 7.09336 2 5.33336 2.33333C4.00002 1.33333 3.33336 1.33333 3.33336 1.33333C3.13336 2.1 3.13336 2.9 3.33336 3.66667C2.84794 4.34392 2.61234 5.16852 2.66669 6C2.66669 8.33333 4.66669 9.66667 6.66669 9.66667C6.40669 9.99333 6.21336 10.3667 6.10002 10.7667C5.98669 11.1667 5.95336 11.5867 6.00002 12V14.6667" stroke="var(--stroke-0, white)" stroke-width="1.33333" stroke-linecap="round" stroke-linejoin="round"/>
<path id="Vector_2" d="M6 12C2.99333 13.3333 2.66667 10.6667 1.33333 10.6667" stroke="var(--stroke-0, white)" stroke-width="1.33333" stroke-linecap="round" stroke-linejoin="round"/>
</g>
</svg>
