<svg preserveAspectRatio="none" width="100%" height="100%" overflow="visible" style="display: block;" viewBox="0 0 16 16" fill="none" xmlns="http://www.w3.org/2000/svg">
<g id="Icon" clip-path="url(#clip0_38_141)">
<path id="Vector" d="M7.34468 1.876C7.37324 1.72307 7.45439 1.58494 7.57407 1.48554C7.69376 1.38615 7.84443 1.33174 8.00001 1.33174C8.15559 1.33174 8.30626 1.38615 8.42594 1.48554C8.54563 1.58494 8.62678 1.72307 8.65534 1.876L9.35601 5.58133C9.40577 5.84476 9.53379 6.08708 9.72336 6.27665C9.91293 6.46622 10.1552 6.59424 10.4187 6.644L14.124 7.34467C14.2769 7.37323 14.4151 7.45438 14.5145 7.57406C14.6139 7.69375 14.6683 7.84442 14.6683 8C14.6683 8.15558 14.6139 8.30625 14.5145 8.42593C14.4151 8.54562 14.2769 8.62677 14.124 8.65533L10.4187 9.356C10.1552 9.40576 9.91293 9.53378 9.72336 9.72335C9.53379 9.91292 9.40577 10.1552 9.35601 10.4187L8.65534 14.124C8.62678 14.2769 8.54563 14.4151 8.42594 14.5145C8.30626 14.6139 8.15559 14.6683 8.00001 14.6683C7.84443 14.6683 7.69376 14.6139 7.57407 14.5145C7.45439 14.4151 7.37324 14.2769 7.34468 14.124L6.64401 10.4187C6.59425 10.1552 6.46623 9.91292 6.27666 9.72335C6.08709 9.53378 5.84477 9.40576 5.58134 9.356L1.87601 8.65533C1.72308 8.62677 1.58495 8.54562 1.48556 8.42593C1.38616 8.30625 1.33175 8.15558 1.33175 8C1.33175 7.84442 1.38616 7.69375 1.48556 7.57406C1.58495 7.45438 1.72308 7.37323 1.87601 7.34467L5.58134 6.644C5.84477 6.59424 6.08709 6.46622 6.27666 6.27665C6.46623 6.08708 6.59425 5.84476 6.64401 5.58133L7.34468 1.876Z" stroke="var(--stroke-0, #51A2FF)" stroke-width="1.33333" stroke-linecap="round" stroke-linejoin="round"/>
<path id="Vector_2" d="M13.3333 1.33333V4" stroke="var(--stroke-0, #51A2FF)" stroke-width="1.33333" stroke-linecap="round" stroke-linejoin="round"/>
<path id="Vector_3" d="M14.6667 2.66667H12" stroke="var(--stroke-0, #51A2FF)" stroke-width="1.33333" stroke-linecap="round" stroke-linejoin="round"/>
<path id="Vector_4" d="M2.66667 14.6667C3.40305 14.6667 4 14.0697 4 13.3333C4 12.597 3.40305 12 2.66667 12C1.93029 12 1.33333 12.597 1.33333 13.3333C1.33333 14.0697 1.93029 14.6667 2.66667 14.6667Z" stroke="var(--stroke-0, #51A2FF)" stroke-width="1.33333" stroke-linecap="round" stroke-linejoin="round"/>
</g>
<defs>
<clipPath id="clip0_38_141">
<rect width="16" height="16" fill="white"/>
</clipPath>
</defs>
</svg>
