<svg preserveAspectRatio="none" width="100%" height="100%" overflow="visible" style="display: block;" viewBox="0 0 32 32" fill="none" xmlns="http://www.w3.org/2000/svg">
<g id="Icon">
<path id="Vector" d="M5.33332 18.6667C5.08101 18.6676 4.83363 18.5968 4.61993 18.4627C4.40622 18.3286 4.23497 18.1365 4.12606 17.9089C4.01714 17.6813 3.97505 17.4275 4.00466 17.1769C4.03426 16.9264 4.13436 16.6893 4.29332 16.4934L17.4933 2.89339C17.5923 2.7791 17.7273 2.70186 17.876 2.67436C18.0247 2.64687 18.1783 2.67074 18.3116 2.74206C18.445 2.81338 18.5501 2.92792 18.6098 3.06687C18.6694 3.20581 18.6801 3.36092 18.64 3.50672L16.08 11.5334C16.0045 11.7354 15.9792 11.9527 16.0061 12.1667C16.0331 12.3807 16.1115 12.585 16.2348 12.762C16.358 12.939 16.5224 13.0834 16.7137 13.1829C16.905 13.2825 17.1177 13.3341 17.3333 13.3334H26.6667C26.919 13.3325 27.1663 13.4033 27.3801 13.5374C27.5938 13.6716 27.765 13.8636 27.8739 14.0912C27.9828 14.3188 28.0249 14.5726 27.9953 14.8232C27.9657 15.0737 27.8656 15.3108 27.7067 15.5067L14.5067 29.1067C14.4076 29.221 14.2727 29.2982 14.124 29.3257C13.9753 29.3532 13.8217 29.3294 13.6883 29.258C13.555 29.1867 13.4499 29.0722 13.3902 28.9332C13.3305 28.7943 13.3199 28.6392 13.36 28.4934L15.92 20.4667C15.9955 20.2647 16.0208 20.0474 15.9939 19.8334C15.9669 19.6194 15.8884 19.4151 15.7652 19.2382C15.642 19.0612 15.4776 18.9167 15.2863 18.8172C15.095 18.7176 14.8823 18.666 14.6667 18.6667H5.33332Z" stroke="var(--stroke-0, white)" stroke-width="2.66667" stroke-linecap="round" stroke-linejoin="round"/>
</g>
</svg>
