<svg width="300" height="275" viewBox="0 0 300 275" fill="none" xmlns="http://www.w3.org/2000/svg">
<g filter="url(#filter0_di_1590_24571)">
<circle cx="150" cy="128.4" r="128" fill="url(#paint0_linear_1590_24571)" shape-rendering="crispEdges"/>
<circle cx="150" cy="128.4" r="126.5" stroke="url(#paint1_linear_1590_24571)" stroke-width="3" shape-rendering="crispEdges"/>
</g>
<path d="M5.25 146.4V111.4H10.25V146.4H5.25ZM20.7285 146.4V111.4H24.8285L47.9785 140.15H45.8285V111.4H50.8285V146.4H46.7285L23.5785 117.65H25.7285V146.4H20.7285ZM68.2547 146.4V115.75H56.2547V111.4H85.2047V115.75H73.2047V146.4H68.2547ZM95.2004 126.5H113.2V130.75H95.2004V126.5ZM95.6504 142.05H116.05V146.4H90.6504V111.4H115.35V115.75H95.6504V142.05ZM124.146 146.4V111.4H137.796C140.863 111.4 143.48 111.884 145.646 112.85C147.813 113.817 149.48 115.217 150.646 117.05C151.813 118.884 152.396 121.067 152.396 123.6C152.396 126.134 151.813 128.317 150.646 130.15C149.48 131.95 147.813 133.334 145.646 134.3C143.48 135.267 140.863 135.75 137.796 135.75H126.896L129.146 133.45V146.4H124.146ZM147.546 146.4L138.646 133.7H143.996L152.996 146.4H147.546ZM129.146 133.95L126.896 131.5H137.646C140.846 131.5 143.263 130.817 144.896 129.45C146.563 128.05 147.396 126.1 147.396 123.6C147.396 121.1 146.563 119.167 144.896 117.8C143.263 116.434 140.846 115.75 137.646 115.75H126.896L129.146 113.25V133.95ZM170.675 146.8C168.008 146.8 165.458 146.4 163.025 145.6C160.591 144.767 158.675 143.7 157.275 142.4L159.125 138.5C160.458 139.667 162.158 140.634 164.225 141.4C166.291 142.167 168.441 142.55 170.675 142.55C172.708 142.55 174.358 142.317 175.625 141.85C176.891 141.384 177.825 140.75 178.425 139.95C179.025 139.117 179.325 138.184 179.325 137.15C179.325 135.95 178.925 134.984 178.125 134.25C177.358 133.517 176.341 132.934 175.075 132.5C173.841 132.034 172.475 131.634 170.975 131.3C169.475 130.967 167.958 130.584 166.425 130.15C164.925 129.684 163.541 129.1 162.275 128.4C161.041 127.7 160.041 126.767 159.275 125.6C158.508 124.4 158.125 122.867 158.125 121C158.125 119.2 158.591 117.55 159.525 116.05C160.491 114.517 161.958 113.3 163.925 112.4C165.925 111.467 168.458 111 171.525 111C173.558 111 175.575 111.267 177.575 111.8C179.575 112.334 181.308 113.1 182.775 114.1L181.125 118.1C179.625 117.1 178.041 116.384 176.375 115.95C174.708 115.484 173.091 115.25 171.525 115.25C169.558 115.25 167.941 115.5 166.675 116C165.408 116.5 164.475 117.167 163.875 118C163.308 118.834 163.025 119.767 163.025 120.8C163.025 122.034 163.408 123.017 164.175 123.75C164.975 124.484 165.991 125.067 167.225 125.5C168.491 125.934 169.875 126.334 171.375 126.7C172.875 127.034 174.375 127.417 175.875 127.85C177.408 128.284 178.791 128.85 180.025 129.55C181.291 130.25 182.308 131.184 183.075 132.35C183.841 133.517 184.225 135.017 184.225 136.85C184.225 138.617 183.741 140.267 182.775 141.8C181.808 143.3 180.308 144.517 178.275 145.45C176.275 146.35 173.741 146.8 170.675 146.8ZM201.729 146.8C199.063 146.8 196.513 146.4 194.079 145.6C191.646 144.767 189.729 143.7 188.329 142.4L190.179 138.5C191.513 139.667 193.213 140.634 195.279 141.4C197.346 142.167 199.496 142.55 201.729 142.55C203.763 142.55 205.413 142.317 206.679 141.85C207.946 141.384 208.879 140.75 209.479 139.95C210.079 139.117 210.379 138.184 210.379 137.15C210.379 135.95 209.979 134.984 209.179 134.25C208.413 133.517 207.396 132.934 206.129 132.5C204.896 132.034 203.529 131.634 202.029 131.3C200.529 130.967 199.013 130.584 197.479 130.15C195.979 129.684 194.596 129.1 193.329 128.4C192.096 127.7 191.096 126.767 190.329 125.6C189.563 124.4 189.179 122.867 189.179 121C189.179 119.2 189.646 117.55 190.579 116.05C191.546 114.517 193.013 113.3 194.979 112.4C196.979 111.467 199.513 111 202.579 111C204.613 111 206.629 111.267 208.629 111.8C210.629 112.334 212.363 113.1 213.829 114.1L212.179 118.1C210.679 117.1 209.096 116.384 207.429 115.95C205.763 115.484 204.146 115.25 202.579 115.25C200.613 115.25 198.996 115.5 197.729 116C196.463 116.5 195.529 117.167 194.929 118C194.363 118.834 194.079 119.767 194.079 120.8C194.079 122.034 194.463 123.017 195.229 123.75C196.029 124.484 197.046 125.067 198.279 125.5C199.546 125.934 200.929 126.334 202.429 126.7C203.929 127.034 205.429 127.417 206.929 127.85C208.463 128.284 209.846 128.85 211.079 129.55C212.346 130.25 213.363 131.184 214.129 132.35C214.896 133.517 215.279 135.017 215.279 136.85C215.279 138.617 214.796 140.267 213.829 141.8C212.863 143.3 211.363 144.517 209.329 145.45C207.329 146.35 204.796 146.8 201.729 146.8ZM238.384 146.8C235.717 146.8 233.234 146.35 230.934 145.45C228.667 144.55 226.701 143.3 225.034 141.7C223.367 140.067 222.067 138.167 221.134 136C220.201 133.834 219.734 131.467 219.734 128.9C219.734 126.334 220.201 123.967 221.134 121.8C222.067 119.634 223.367 117.75 225.034 116.15C226.701 114.517 228.667 113.25 230.934 112.35C233.201 111.45 235.684 111 238.384 111C241.051 111 243.501 111.45 245.734 112.35C248.001 113.217 249.967 114.467 251.634 116.1C253.334 117.7 254.634 119.584 255.534 121.75C256.467 123.917 256.934 126.3 256.934 128.9C256.934 131.5 256.467 133.884 255.534 136.05C254.634 138.217 253.334 140.117 251.634 141.75C249.967 143.35 248.001 144.6 245.734 145.5C243.501 146.367 241.051 146.8 238.384 146.8ZM238.384 142.35C240.317 142.35 242.101 142.017 243.734 141.35C245.401 140.684 246.834 139.75 248.034 138.55C249.267 137.317 250.217 135.884 250.884 134.25C251.584 132.617 251.934 130.834 251.934 128.9C251.934 126.967 251.584 125.184 250.884 123.55C250.217 121.917 249.267 120.5 248.034 119.3C246.834 118.067 245.401 117.117 243.734 116.45C242.101 115.784 240.317 115.45 238.384 115.45C236.417 115.45 234.601 115.784 232.934 116.45C231.301 117.117 229.867 118.067 228.634 119.3C227.401 120.5 226.434 121.917 225.734 123.55C225.067 125.184 224.734 126.967 224.734 128.9C224.734 130.834 225.067 132.617 225.734 134.25C226.434 135.884 227.401 137.317 228.634 138.55C229.867 139.75 231.301 140.684 232.934 141.35C234.601 142.017 236.417 142.35 238.384 142.35ZM264.576 146.4V111.4H268.676L291.826 140.15H289.676V111.4H294.676V146.4H290.576L267.426 117.65H269.576V146.4H264.576Z" fill="white"/>
<defs>
<filter id="filter0_di_1590_24571" x="14.6" y="0.000391006" width="274.8" height="274.8" filterUnits="userSpaceOnUse" color-interpolation-filters="sRGB">
<feFlood flood-opacity="0" result="BackgroundImageFix"/>
<feColorMatrix in="SourceAlpha" type="matrix" values="0 0 0 0 0 0 0 0 0 0 0 0 0 0 0 0 0 0 127 0" result="hardAlpha"/>
<feOffset dx="2" dy="9"/>
<feGaussianBlur stdDeviation="4.7"/>
<feComposite in2="hardAlpha" operator="out"/>
<feColorMatrix type="matrix" values="0 0 0 0 0 0 0 0 0 0 0 0 0 0 0 0 0 0 0.25 0"/>
<feBlend mode="normal" in2="BackgroundImageFix" result="effect1_dropShadow_1590_24571"/>
<feBlend mode="normal" in="SourceGraphic" in2="effect1_dropShadow_1590_24571" result="shape"/>
<feColorMatrix in="SourceAlpha" type="matrix" values="0 0 0 0 0 0 0 0 0 0 0 0 0 0 0 0 0 0 127 0" result="hardAlpha"/>
<feOffset dy="11"/>
<feGaussianBlur stdDeviation="9"/>
<feComposite in2="hardAlpha" operator="arithmetic" k2="-1" k3="1"/>
<feColorMatrix type="matrix" values="0 0 0 0 0.649177 0 0 0 0 0.581404 0 0 0 0 1 0 0 0 0.75 0"/>
<feBlend mode="normal" in2="shape" result="effect2_innerShadow_1590_24571"/>
</filter>
<linearGradient id="paint0_linear_1590_24571" x1="150" y1="0.400391" x2="150" y2="256.4" gradientUnits="userSpaceOnUse">
<stop stop-color="#787878"/>
<stop offset="1" stop-color="#171717" stop-opacity="0"/>
</linearGradient>
<linearGradient id="paint1_linear_1590_24571" x1="150" y1="0.400391" x2="150" y2="256.4" gradientUnits="userSpaceOnUse">
<stop stop-color="white"/>
<stop offset="0.245" stop-color="white" stop-opacity="0"/>
</linearGradient>
</defs>
</svg>
